<?xml version="1.0" encoding="utf-8"?>
<svg viewBox="0 0 128 128" xmlns="http://www.w3.org/2000/svg">
  <path fill="#00618A" d="M 2.001 119.458 L 6.109 119.458 L 6.109 103.235 L 12.469 117.378 C 13.219 119.09 14.246 119.695 16.261 119.695 C 18.276 119.695 19.264 119.09 20.014 117.378 L 26.374 103.235 L 26.374 119.458 L 30.482 119.458 L 30.482 103.262 C 30.482 101.682 29.85 100.917 28.546 100.523 C 25.425 99.549 23.331 100.392 22.383 102.499 L 16.142 116.457 L 10.099 102.498 C 9.19 100.392 7.057 99.549 3.936 100.522 C 2.632 100.917 2 101.681 2 103.261 L 2 119.458 L 2.001 119.458 Z M 33.899 106.252 L 38.006 106.252 L 38.006 115.19 C 37.968 115.675 38.162 116.815 40.412 116.851 C 41.56 116.869 49.274 116.851 49.346 116.851 L 49.346 106.208 L 53.463 106.208 C 53.482 106.208 53.459 120.722 53.459 120.782 C 53.481 124.362 49.018 125.139 46.96 125.199 L 33.988 125.199 L 33.988 122.435 C 34.01 122.435 46.951 122.438 46.983 122.434 C 49.628 122.155 49.315 120.841 49.314 120.399 L 49.314 119.321 L 40.583 119.321 C 36.521 119.284 33.933 117.511 33.9 115.471 C 33.898 115.284 33.989 106.342 33.899 106.252 Z"/>
  <path fill="#E48E00" d="M 56.63 119.458 L 68.442 119.458 C 69.825 119.458 71.169 119.169 72.235 118.669 C 74.012 117.853 74.881 116.747 74.881 115.297 L 74.881 112.295 C 74.881 111.11 73.894 110.003 71.958 109.267 C 70.931 108.871 69.666 108.662 68.441 108.662 L 63.463 108.662 C 61.804 108.662 61.014 108.162 60.817 107.056 C 60.778 106.924 60.778 106.819 60.778 106.687 L 60.778 104.817 C 60.778 104.712 60.778 104.606 60.817 104.475 C 61.014 103.632 61.449 103.395 62.911 103.263 L 63.306 103.237 L 75.039 103.237 L 75.039 100.499 L 63.504 100.499 C 61.845 100.499 60.976 100.604 60.186 100.841 C 57.737 101.605 56.669 102.816 56.669 104.923 L 56.669 107.319 C 56.669 109.163 58.764 110.743 62.279 111.112 C 62.675 111.137 63.069 111.165 63.464 111.165 L 67.731 111.165 C 67.889 111.165 68.047 111.165 68.166 111.19 C 69.47 111.295 70.022 111.533 70.418 112.006 C 70.623 112.196 70.738 112.464 70.733 112.743 L 70.733 115.14 C 70.733 115.429 70.536 115.798 70.141 116.114 C 69.786 116.43 69.193 116.641 68.403 116.694 L 67.968 116.72 L 56.63 116.72 L 56.63 119.458 Z M 100.511 114.692 C 100.511 117.509 102.605 119.089 106.831 119.406 C 107.226 119.432 107.621 119.458 108.016 119.458 L 118.722 119.458 L 118.722 116.72 L 107.938 116.72 C 105.528 116.72 104.62 116.114 104.62 114.665 L 104.62 100.497 L 100.512 100.497 L 100.512 114.692 L 100.511 114.692 Z M 77.503 114.834 L 77.503 105.069 C 77.503 102.589 79.245 101.084 82.689 100.609 C 83.056 100.556 83.426 100.53 83.797 100.53 L 91.596 100.53 C 91.992 100.53 92.348 100.556 92.743 100.609 C 96.187 101.084 97.93 102.588 97.93 105.069 L 97.93 114.834 C 97.93 116.848 97.19 117.924 95.485 118.626 L 99.533 122.279 L 94.762 122.279 L 91.488 119.323 L 88.192 119.532 L 83.797 119.532 C 82.981 119.527 82.169 119.411 81.383 119.189 C 78.77 118.477 77.503 117.104 77.503 114.834 Z M 81.937 114.597 C 81.937 114.729 81.976 114.862 82.016 115.02 C 82.253 116.155 83.323 116.788 84.945 116.788 L 88.677 116.788 L 85.249 113.693 L 90.02 113.693 L 93.009 116.393 C 93.561 116.098 93.923 115.65 94.05 115.073 C 94.089 114.941 94.089 114.809 94.089 114.677 L 94.089 105.309 C 94.089 105.204 94.089 105.071 94.05 104.939 C 93.812 103.883 92.743 103.277 91.16 103.277 L 84.944 103.277 C 83.124 103.277 81.936 104.069 81.936 105.309 L 81.936 114.597 L 81.937 114.597 Z"/>
  <path fill="#00618A" d="M 121.94 95.746 C 119.143 95.676 117.005 95.916 115.177 96.625 C 114.657 96.827 113.83 96.832 113.745 97.43 C 114.03 97.707 114.074 98.118 114.302 98.457 C 114.738 99.106 115.475 99.977 116.132 100.433 C 116.849 100.932 117.589 101.467 118.36 101.899 C 119.729 102.668 121.258 103.107 122.577 103.876 C 123.354 104.331 124.125 104.902 124.884 105.415 C 125.26 105.667 125.51 106.062 125.999 106.22 L 125.999 106.148 C 125.743 105.848 125.677 105.436 125.442 105.121 L 124.407 104.169 C 123.395 102.932 122.112 101.848 120.746 100.946 C 119.658 100.227 117.222 99.255 116.768 98.089 L 116.688 98.017 C 117.459 97.936 118.364 97.679 119.075 97.504 C 120.272 97.208 121.341 97.285 122.576 96.991 L 124.247 96.55 L 124.247 96.258 C 123.623 95.669 123.177 94.888 122.497 94.354 C 120.716 92.958 118.77 91.562 116.768 90.397 C 115.658 89.753 114.285 89.334 113.107 88.787 C 112.713 88.602 112.017 88.507 111.754 88.2 C 111.135 87.475 110.799 86.556 110.321 85.71 C 109.302 83.884 108.346 82.027 107.457 80.143 C 106.854 78.873 106.46 77.621 105.708 76.481 C 102.094 71.013 98.205 67.712 92.181 64.468 C 90.899 63.778 89.355 63.507 87.725 63.151 L 85.099 63.004 C 84.566 62.799 84.01 62.197 83.508 61.905 C 81.512 60.744 76.392 58.22 74.914 61.54 C 73.981 63.635 76.31 65.679 77.143 66.741 C 77.727 67.486 78.476 68.32 78.893 69.158 C 79.168 69.708 79.215 70.26 79.451 70.843 C 80.028 72.277 80.532 73.838 81.28 75.163 C 81.658 75.835 82.076 76.541 82.553 77.141 C 82.846 77.508 83.349 77.672 83.427 78.24 C 82.937 78.872 82.908 79.855 82.632 80.656 C 81.389 84.266 81.857 88.753 83.667 91.425 C 84.222 92.246 85.529 94.004 87.327 93.329 C 88.899 92.739 88.549 90.913 88.999 89.3 C 89.1 88.936 89.037 88.666 89.237 88.422 L 89.237 88.495 L 90.669 91.132 C 91.73 92.704 93.61 94.345 95.205 95.454 C 96.031 96.028 96.683 97.022 97.751 97.358 L 97.751 97.284 L 97.672 97.284 C 97.464 96.987 97.141 96.864 96.876 96.625 C 96.253 96.063 95.56 95.365 95.046 94.72 C 93.596 92.909 92.315 90.925 91.147 88.86 C 90.59 87.875 90.105 86.788 89.636 85.784 C 89.454 85.397 89.456 84.812 89.079 84.613 C 88.563 85.347 87.806 85.942 87.407 86.81 C 86.771 88.197 86.689 89.889 86.453 91.644 L 86.294 91.716 C 85.185 91.47 84.796 90.42 84.384 89.519 C 83.342 87.241 83.148 83.572 84.066 80.95 C 84.303 80.271 85.374 78.134 84.94 77.506 C 84.733 76.881 84.049 76.52 83.668 76.041 C 83.168 75.399 82.741 74.712 82.395 73.989 C 81.541 72.213 81.144 70.219 80.247 68.423 C 79.817 67.564 79.093 66.696 78.497 65.933 C 77.837 65.087 77.098 64.464 76.586 63.442 C 76.405 63.079 76.158 62.497 76.427 62.123 C 76.512 61.871 76.635 61.766 76.905 61.684 C 77.366 61.356 78.652 61.793 79.133 61.977 C 80.409 62.465 81.474 62.929 82.555 63.588 C 83.074 63.905 83.598 64.517 84.226 64.687 L 84.942 64.687 C 86.062 64.923 87.318 64.759 88.364 65.052 C 90.214 65.57 91.872 66.375 93.376 67.25 C 97.963 69.916 101.711 73.711 104.277 78.238 C 104.689 78.967 104.869 79.662 105.231 80.435 C 105.965 81.993 106.889 83.598 107.618 85.123 C 108.346 86.644 109.056 88.179 110.085 89.445 C 110.626 90.11 112.716 90.467 113.666 90.836 C 114.331 91.095 115.422 91.365 116.052 91.714 C 117.257 92.383 118.425 93.18 119.554 93.912 C 120.118 94.282 121.854 95.084 121.94 95.746 Z M 86.374 67.84 C 85.892 67.832 85.41 67.881 84.941 67.987 L 84.941 68.059 L 85.021 68.059 C 85.299 68.586 85.79 68.925 86.134 69.378 L 86.931 70.916 L 87.01 70.844 C 87.503 70.524 87.728 70.013 87.725 69.232 C 87.527 69.04 87.498 68.8 87.328 68.573 C 87.102 68.267 86.661 68.096 86.374 67.84 Z" style=""/>
</svg>